<svg width="631" height="435" viewBox="0 0 631 435" fill="none" xmlns="http://www.w3.org/2000/svg">
<rect width="631" height="435" fill="#1E1E1E"/>
<rect width="631" height="435" rx="30" fill="#FFFDF4"/>
<path d="M38 373L42.4903 386.82H57.0211L45.2654 395.361L49.7557 409.18L38 400.639L26.2443 409.18L30.7346 395.361L18.9789 386.82H33.5097L38 373Z" fill="#FFC803"/>
<path d="M41.0211 26L45.5114 39.8197H60.0422L48.2865 48.3607L52.7768 62.1803L41.0211 53.6393L29.2654 62.1803L33.7557 48.3607L22 39.8197H36.5308L41.0211 26Z" fill="#FFC803"/>
<path d="M75 22L78.3677 32.3647H89.2658L80.4491 38.7705L83.8168 49.1353L75 42.7295L66.1832 49.1353L69.5509 38.7705L60.7342 32.3647H71.6323L75 22Z" fill="#FFC803"/>
<path d="M71 388L74.3677 398.365H85.2658L76.4491 404.771L79.8168 415.135L71 408.729L62.1832 415.135L65.5509 404.771L56.7342 398.365H67.6323L71 388Z" fill="#FFC803"/>
<path d="M558 388L561.368 398.365H572.266L563.449 404.771L566.817 415.135L558 408.729L549.183 415.135L552.551 404.771L543.734 398.365H554.632L558 388Z" fill="#FFC803"/>
<path d="M593 26L597.49 39.8197H612.021L600.265 48.3607L604.756 62.1803L593 53.6393L581.244 62.1803L585.735 48.3607L573.979 39.8197H588.51L593 26Z" fill="#FFC803"/>
<path d="M558 22L561.368 32.3648H572.266L563.449 38.7705L566.817 49.1353L558 42.7295L549.183 49.1353L552.551 38.7705L543.734 32.3648H554.632L558 22Z" fill="#FFC803"/>
<path d="M22 349L25.3677 359.365H36.2658L27.4491 365.771L30.8168 376.135L22 369.729L13.1832 376.135L16.5509 365.771L7.73415 359.365H18.6323L22 349Z" fill="#FFC803"/>
<path d="M22 62L25.3677 72.3647H36.2658L27.4491 78.7705L30.8168 89.1353L22 82.7295L13.1832 89.1353L16.5509 78.7705L7.73415 72.3647H18.6323L22 62Z" fill="#FFC803"/>
<path d="M593 373L597.49 386.82H612.021L600.265 395.361L604.756 409.18L593 400.639L581.244 409.18L585.735 395.361L573.979 386.82H588.51L593 373Z" fill="#FFC803"/>
<path d="M613 349L616.368 359.365H627.266L618.449 365.771L621.817 376.135L613 369.729L604.183 376.135L607.551 365.771L598.734 359.365H609.632L613 349Z" fill="#FFC803"/>
<path d="M613 62L616.368 72.3647H627.266L618.449 78.7705L621.817 89.1353L613 82.7295L604.183 89.1353L607.551 78.7705L598.734 72.3647H609.632L613 62Z" fill="#FFC803"/>
<line x1="97.9913" y1="33.5" x2="213.009" y2="33.5" stroke="#FFC803" stroke-width="3"/>
<line x1="418" y1="401.5" x2="533.017" y2="401.5" stroke="#FFC803" stroke-width="3"/>
<line x1="98" y1="401.5" x2="213.017" y2="401.5" stroke="#FFC803" stroke-width="3"/>
<line x1="418" y1="33.5" x2="533.017" y2="33.5" stroke="#FFC803" stroke-width="3"/>
<line x1="21.5" y1="94" x2="21.5" y2="340" stroke="#FFC803" stroke-width="3"/>
<line x1="612.5" y1="94" x2="612.5" y2="340" stroke="#FFC803" stroke-width="3"/>
</svg>
